<?xml version="1.0" encoding="UTF-8" standalone="no"?>
<svg
   xmlns:dc="http://purl.org/dc/elements/1.1/"
   xmlns:cc="http://creativecommons.org/ns#"
   xmlns:rdf="http://www.w3.org/1999/02/22-rdf-syntax-ns#"
   xmlns:svg="http://www.w3.org/2000/svg"
   xmlns="http://www.w3.org/2000/svg"
   id="svg7384"
   height="16"
   width="16"
   version="1.1">
  <defs
     id="defs7386">
    <filter
       color-interpolation-filters="sRGB"
       id="filter7554">
      <feBlend
         id="feBlend7556"
         in2="BackgroundImage"
         mode="darken" />
    </filter>
    <filter
       color-interpolation-filters="sRGB"
       id="filter7554-7">
      <feBlend
         id="feBlend7556-6"
         in2="BackgroundImage"
         mode="darken" />
    </filter>
  </defs>
  <g
     id="layer9"
     label="status"
     style="display:inline"
     transform="translate(-393.0006,12)" />
  <g
     id="layer10"
     style="display:inline"
     transform="translate(-393.0006,12)" />
  <g
     id="layer13"
     style="display:inline"
     transform="translate(-393.0006,12)" />
  <g
     id="layer14"
     transform="translate(-393.0006,12)" />
  <g
     id="layer15"
     style="display:inline"
     transform="translate(-393.0006,12)" />
  <g
     id="g71291"
     style="display:inline"
     transform="translate(-393.0006,12)" />
  <g
     id="layer12"
     style="display:inline"
     transform="translate(-393.0006,12)">
    <path
       d="m 399.25019,-11.00354 c -2.89949,0 -5.25,2.35051 -5.25,5.25 0,2.89949 2.35051,5.25 5.25,5.25 1.12797,0 2.17551,-0.36336 3.03125,-0.96875 l 4.21875,4.21875 c 0.34277,0.34277 0.90723,0.34277 1.25,0 0.34277,-0.34277 0.34277,-0.90723 0,-1.25 l -4.21875,-4.21875 c 0.60539,-0.85574 0.96875,-1.90328 0.96875,-3.03125 0,-2.89949 -2.35051,-5.25 -5.25,-5.25 z m 0,1.375 c 2.1401,0 3.875,1.7349 3.875,3.875 0,2.1401 -1.7349,3.875 -3.875,3.875 -2.1401,0 -3.875,-1.7349 -3.875,-3.875 0,-2.1401 1.7349,-3.875 3.875,-3.875 z"
       id="path22228"
       style="color:#bebebe;fill:#bebebe;fill-opacity:1;fill-rule:nonzero;stroke:none;stroke-width:1;marker:none;visibility:visible;display:inline;overflow:visible;enable-background:accumulate" />
  </g>
</svg>
